# xmcd CD database file
#
# Track frame offsets:
#	150
#	19423
#	35238
#	55129
#	68603
#	86958
#	103186
#	123154
#	138904
#	152959
#	168843
#	189573
#
# Disc length: 2775 seconds
#
# Revision: 1
# Processed by: cddbd v1.5.2PL0 Copyright (c) Steve Scherf et al.
# Submitted via: CDex 1.51
#
DISCID=a60ad50c
DTITLE=Steep Canyon Rangers - Tell The Ones I Love
DYEAR=2013
DGENRE=Bluegrass
TTITLE0=Tell the Ones I Love
TTITLE1=Stand and Deliver
TTITLE2=Bluer Words Were Never Spoken
TTITLE3=Come Dance
TTITLE4=Camellia
TTITLE5=Graveyard Fields
TTITLE6=Boomtown
TTITLE7=Mendocino County Blue
TTITLE8=Hunger
TTITLE9=Lay Myself Down
TTITLE10=Take the Wheel
TTITLE11=Las Vegas
EXTD=YEAR: 2013
EXTT0=
EXTT1=
EXTT2=
EXTT3=
EXTT4=
EXTT5=
EXTT6=
EXTT7=
EXTT8=
EXTT9=
EXTT10=
EXTT11=
PLAYORDER=
